#!OML:ASF F:\VICON\USERDATA\INSTALL\Justin_Nancy\Justin_Nancy.ASF
:FULLY-SPECIFIED
:DEGREES
1
root 0.372288 16.767 -36.3147 19.646 -2.30509 0.284335
lowerback 2.56142 -2.0109 0.0709729
upperback 0.348677 -2.64599 2.93511
thorax -0.941541 -1.3205 3.05959
lowerneck -8.92499 -0.964827 -12.247
upperneck 7.20697 -0.444682 7.82267
head 3.6467 -0.172861 4.37543
rclavicle 1.8487e-014 -2.38542e-014
rhumerus -32.0486 1.53134 -85.7142
rradius 38.2947
rwrist 0.578007
rhand -16.6748 14.4243
rfingers 7.12502
rthumb 9.54909 -15.3393
lclavicle 1.8487e-014 -2.38542e-014
lhumerus -35.7405 13.5521 83.4631
lradius 37.3915
lwrist 3.23108
lhand -15.7052 21.1177
lfingers 7.12502
lthumb 10.4845 50.8362
rfemur -16.4458 5.62541 24.2679
rtibia 32.8528
rfoot -29.0733 -10.0373
rtoes -3.87387
lfemur -29.5778 -0.992926 -14.7132
ltibia 54.0848
lfoot -19.363 -2.61112
ltoes -20.5096
2
root 0.361855 16.738 -36.1963 18.4433 0.361812 1.09204
lowerback 8.56629 -3.70119 -4.47577
upperback -2.42011 -5.03157 6.77013
thorax -6.3769 -2.16766 10.5092
lowerneck -7.86369 0.507446 -15.5724
upperneck 9.17718 1.97504 5.5394
head 3.83349 0.731191 4.32929
rclavicle -8.46823e-014 -1.59028e-014
rhumerus -35.9766 10.032 -82.7073
rradius 39.4635
rwrist -1.07134
rhand -15.0563 15.7798
rfingers 7.12502
rthumb 11.1104 -13.906
lclavicle -8.46823e-014 -1.59028e-014
lhumerus -41.7351 20.2019 85.3409
lradius 38.6389
lwrist 2.82923
lhand -15.6752 22.1665
lfingers 7.12502
lthumb 10.5135 51.8836
rfemur -14.0094 4.38568 24.6183
rtibia 32.1184
rfoot -29.1565 -11.8221
rtoes -5.23561
lfemur -29.7702 -2.96731 -14.5359
ltibia 56.1378
lfoot -17.4835 -4.24147
ltoes -20.8909
3
root 0.345646 16.7175 -36.0913 18.5742 0.161914 0.74157
lowerback 9.04997 -4.01188 -5.06056
upperback -2.71214 -5.48038 7.53395
thorax -6.75324 -2.32076 11.8518
lowerneck -7.13743 0.943782 -16.5637
upperneck 9.12044 2.56416 5.33361
head 3.63029 0.972159 4.43533
rclavicle -3.4191e-014 -1.59028e-015
rhumerus -36.3129 12.3876 -82.4949
rradius 40.2053
rwrist 0.558466
rhand -15.6091 14.7789
rfingers 7.12502
rthumb 10.5773 -14.9349
lclavicle -3.4191e-014 -1.59028e-015
lhumerus -43.1787 22.2863 84.9961
lradius 39.2484
lwrist 3.50089
lhand -15.318 21.2481
lfingers 7.12502
lthumb 10.858 50.9474
rfemur -13.4185 4.44062 24.9745
rtibia 31.4912
rfoot -29.0247 -11.7372
rtoes -6.6624
lfemur -30.9037 -2.284 -14.1233
ltibia 58.204
lfoot -15.5281 -5.00065
ltoes -21.2212
4
root 0.33421 16.6982 -35.9846 18.6379 0.350439 0.837326
lowerback 8.80167 -3.71762 -4.41235
upperback -2.30473 -5.03767 7.00694
thorax -6.37111 -2.17245 10.7556
lowerneck -7.06209 0.0432744 -16.4243
upperneck 9.13104 1.29201 5.73708
head 3.75654 0.367804 4.48651
rclavicle 6.20208e-014 1.59028e-015
rhumerus -35.7963 11.3991 -83.0015
rradius 40.806
rwrist 0.0911007
rhand -15.0966 11.7036
rfingers 7.12502
rthumb 11.0716 -17.9844
lclavicle 6.20208e-014 1.59028e-015
lhumerus -42.5526 20.8208 85.0647
lradius 39.4094
lwrist 4.03613
lhand -14.8856 21.4028
lfingers 7.12502
lthumb 11.275 51.0797
rfemur -12.6941 4.26855 24.995
rtibia 30.8219
rfoot -29.2702 -11.5981
rtoes -5.3652
lfemur -32.0897 -2.08796 -14.08
ltibia 60.2527
lfoot -13.2578 -5.71581
ltoes -19.7668
5
root 0.32288 16.6816 -35.8771 18.6325 0.6701 0.679061
lowerback 3.82703 -2.54934 1.05859
upperback 1.27366 -3.32149 2.92769
thorax -0.720897 -1.66251 2.55585
lowerneck -8.14075 -1.71193 -12.5129
upperneck 6.04453 -1.49709 8.09182
head 3.27928 -0.68399 4.4347
rclavicle -1.5704e-014 1.82882e-014
rhumerus -31.3171 2.7261 -86.3089
rradius 41.0336
rwrist 0.579309
rhand -14.7661 10.4084
rfingers 7.12502
rthumb 11.3904 -19.2622
lclavicle -1.5704e-014 1.82882e-014
lhumerus -35.799 12.9153 83.4714
lradius 38.3246
lwrist 5.17939
lhand -14.2201 22.1926
lfingers 7.12502
lthumb 11.9169 51.8334
rfemur -11.9173 4.08299 25.3454
rtibia 30.1905
rfoot -29.3409 -11.6963
rtoes -5.30319
lfemur -33.4063 -1.83434 -13.7382
ltibia 62.4043
lfoot -11.0647 -6.46222
ltoes -16.1908
6
root 0.306655 16.6583 -35.7782 18.6779 0.723138 0.302098
lowerback 3.52067 -2.08969 2.27444
upperback 2.00875 -2.70457 2.30186
thorax 0.0959228 -1.34385 1.17769
lowerneck -9.02601 -2.02179 -11.6336
upperneck 5.75758 -1.93184 8.42787
head 3.37837 -0.843125 4.36886
rclavicle 2.60408e-014 -1.43125e-014
rhumerus -30.3574 1.61068 -87.0145
rradius 42.0557
rwrist -0.106209
rhand -14.7361 10.9806
rfingers 7.12502
rthumb 11.4193 -18.6885
lclavicle 2.60408e-014 -1.43125e-014
lhumerus -34.3975 11.255 83.2646
lradius 38.1363
lwrist 5.64708
lhand -14.1553 22.0288
lfingers 7.12502
lthumb 11.9794 51.666
rfemur -11.2908 4.22476 25.8317
rtibia 29.5701
rfoot -29.2902 -11.743
rtoes -5.26974
lfemur -34.8693 -1.18422 -13.2937
ltibia 64.6057
lfoot -9.6787 -7.08939
ltoes -12.7386
7
root 0.291435 16.6355 -35.6884 18.7337 0.708688 0.109997
lowerback 5.22779 -1.86221 1.7418
upperback 1.47616 -2.33403 2.91172
thorax -1.3582 -1.16756 2.16354
lowerneck -9.49607 -2.2472 -11.8799
upperneck 6.27478 -2.12223 7.87714
head 3.62773 -0.965285 4.2251
rclavicle -2.64384e-014 3.97569e-015
rhumerus -30.9233 2.55443 -86.3538
rradius 43.0685
rwrist -0.758775
rhand -14.5568 10.9598
rfingers 7.12502
rthumb 11.5922 -18.6996
lclavicle -2.64384e-014 3.97569e-015
lhumerus -35.3275 11.2765 84.0129
lradius 38.5714
lwrist 5.69556
lhand -14.5083 21.2564
lfingers 7.12502
lthumb 11.6389 50.9132
rfemur -10.6773 4.63066 26.1186
rtibia 28.9188
rfoot -29.0147 -11.959
rtoes -5.14924
lfemur -36.4655 -0.562024 -13.0803
ltibia 66.8307
lfoot -7.60163 -7.43541
ltoes -6.08451
8
root 0.286641 16.6095 -35.5751 18.8167 1.0279 0.0319522
lowerback 9.22416 -2.30778 -1.2373
upperback -0.990514 -2.88432 5.55934
thorax -5.87591 -1.28928 6.993
lowerneck -8.5855 -1.38903 -14.0121
upperneck 7.86271 -0.691746 6.12022
head 3.82456 -0.451101 4.11291
rclavicle -1.98785e-015 7.95139e-016
rhumerus -34.5208 8.20116 -84.2302
rradius 44.7087
rwrist -2.30803
rhand -14.6896 12.1533
rfingers 7.12502
rthumb 11.4641 -17.5132
lclavicle -1.98785e-015 7.95139e-016
lhumerus -40.1599 15.1712 85.6323
lradius 39.607
lwrist 5.38465
lhand -14.5561 20.9983
lfingers 7.12502
lthumb 11.5928 50.6577
rfemur -10.0063 4.34388 26.3446
rtibia 28.3377
rfoot -28.8135 -11.9851
rtoes -5.85959
lfemur -37.9813 -0.294861 -12.9722
ltibia 69.0298
lfoot -6.51579 -7.0505
ltoes -3.67888
9
root 0.284755 16.5781 -35.4473 19.2582 0.944556 -0.205949
lowerback 9.9553 -3.43627 -3.4161
upperback -1.94385 -4.50351 7.6739
thorax -6.77854 -1.9184 10.9572
lowerneck -7.16023 0.208973 -16.4954
upperneck 7.65312 1.57977 5.2437
head 3.29575 0.546933 4.3328
rclavicle 9.93923e-015 1.43125e-014
rhumerus -35.9594 16.1531 -84.5171
rradius 45.4801
rwrist -8.33406
rhand -16.5874 18.6202
rfingers 7.12502
rthumb 9.63346 -11.1395
lclavicle 9.93923e-015 1.43125e-014
lhumerus -43.4073 20.7456 85.6005
lradius 40.6815
lwrist 5.33242
lhand -14.7062 21.071
lfingers 7.12502
lthumb 11.4481 50.7384
rfemur -9.59827 3.9683 26.4977
rtibia 27.5805
rfoot -28.6433 -11.444
rtoes -6.65692
lfemur -39.7185 0.48425 -12.9354
ltibia 71.188
lfoot -8.15996 -6.54346
ltoes -10.9812
10
root 0.278652 16.5454 -35.332 20.2769 -0.178278 -0.885938
lowerback 9.09315 -2.37844 -2.65048
upperback -1.83615 -3.01812 7.27283
thorax -6.53402 -1.23375 9.77075
lowerneck -7.28951 -0.595168 -15.8312
upperneck 7.52115 0.443567 5.40521
head 3.39867 0.017781 4.22843
rclavicle -4.92986e-014 7.15625e-014
rhumerus -35.108 13.4873 -83.9046
rradius 47.2644
rwrist -3.46726
rhand -15.0027 9.54994
rfingers 7.12502
rthumb 11.1621 -20.1332
lclavicle -4.92986e-014 7.15625e-014
lhumerus -42.8435 18.6208 85.9884
lradius 40.7182
lwrist 5.47969
lhand -14.8961 21.1503
lfingers 7.12502
lthumb 11.265 50.8279
rfemur -9.86729 4.25488 26.6652
rtibia 26.7191
rfoot -28.5451 -10.1964
rtoes -7.09516
lfemur -42.046 2.38904 -12.8491
ltibia 73.3708
lfoot -10.1347 -6.31737
ltoes -15.0229
11
root 0.278248 16.4998 -35.1865 19.3909 0.984369 -0.661725
lowerback 4.68244 -1.92169 2.29529
upperback 1.76376 -2.41021 3.72273
thorax -0.74331 -1.20684 2.66728
lowerneck -7.36403 -1.96564 -12.7797
upperneck 4.21446 -1.81769 7.65152
head 2.63516 -0.850259 4.3164
rclavicle -3.97569e-016 -3.18055e-015
rhumerus -30.2367 6.83673 -86.7658
rradius 47.6083
rwrist -2.17967
rhand -15.3731 7.84392
rfingers 7.12502
rthumb 10.8049 -21.8582
lclavicle -3.97569e-016 -3.18055e-015
lhumerus -37.1346 12.3923 84.1929
lradius 40.186
lwrist 6.35081
lhand -14.7693 21.4075
lfingers 7.12502
lthumb 11.3873 51.0783
rfemur -7.61273 3.57453 27.011
rtibia 25.6844
rfoot -28.9233 -10.4954
rtoes -6.26643
lfemur -42.5938 1.92349 -12.8844
ltibia 75.334
lfoot -12.4992 -6.55084
ltoes -16.2058
12
root 0.28598 16.4684 -35.0682 19.9233 0.313101 -1.27649
lowerback 3.28455 -1.24105 3.97917
upperback 2.71676 -1.57302 2.87352
thorax 0.926188 -0.752356 0.760096
lowerneck -7.91254 -2.34403 -11.7379
upperneck 3.19595 -2.35869 8.08624
head 2.4691 -1.06418 4.25175
rclavicle 8.34896e-015 -2.22639e-014
rhumerus -28.4672 5.45582 -87.5709
rradius 48.6405
rwrist -2.1023
rhand -15.5125 9.2429
rfingers 7.12502
rthumb 10.6704 -20.4662
lclavicle 8.34896e-015 -2.22639e-014
lhumerus -35.6217 10.7443 83.7289
lradius 40.5028
lwrist 6.71012
lhand -14.6177 21.6533
lfingers 7.12502
lthumb 11.5335 51.316
rfemur -7.15973 3.5361 27.2448
rtibia 24.6627
rfoot -28.584 -9.56896
rtoes -6.21223
lfemur -44.6818 3.4702 -12.852
ltibia 77.2855
lfoot -13.1046 -6.03588
ltoes -15.601
13
root 0.277825 16.4416 -34.9455 20.2867 0.245783 -1.5043
lowerback 4.07581 -0.760706 4.01646
upperback 2.45031 -0.871021 3.00046
thorax 0.222276 -0.413761 0.863795
lowerneck -8.47975 -2.6779 -11.4321
upperneck 3.47182 -2.77023 7.82438
head 2.67633 -1.26574 4.09518
rclavicle -1.74931e-014 4.29375e-014
rhumerus -28.4713 5.08959 -87.2429
rradius 50.1852
rwrist -2.64889
rhand -15.7197 9.8466
rfingers 7.12502
rthumb 10.4705 -19.8727
lclavicle -1.74931e-014 4.29375e-014
lhumerus -36.0913 9.6836 84.1576
lradius 41.2434
lwrist 6.91568
lhand -14.4057 21.547
lfingers 7.12502
lthumb 11.7379 51.1981
rfemur -6.45876 3.39084 27.4538
rtibia 23.5451
rfoot -28.0929 -9.46918
rtoes -8.2444
lfemur -46.6712 4.53579 -13.0155
ltibia 78.9007
lfoot -12.0255 -4.8856
ltoes -13.363
14
root 0.268066 16.4186 -34.8193 20.886 0.168383 -1.58583
lowerback 5.41424 0.916816 4.59916
upperback 3.4342 1.41317 2.25024
thorax 0.560367 0.751967 -0.329976
lowerneck -16.3206 -5.09068 -9.04774
upperneck 6.01388 -5.66182 7.21281
head 4.90352 -2.54157 3.20102
rclavicle -1.19271e-015 -9.54166e-015
rhumerus -25.4454 0.361946 -86.565
rradius 51.5
rwrist -2.25445
rhand -16.2914 10.5356
rfingers 7.12502
rthumb 9.91899 -19.2107
lclavicle -1.19271e-015 -9.54166e-015
lhumerus -32.2541 4.81765 85.3071
lradius 41.0722
lwrist 7.48433
lhand -14.4424 21.0159
lfingers 7.12502
lthumb 11.7025 50.669
rfemur -6.12301 3.37903 27.4864
rtibia 22.5858
rfoot -27.7437 -9.10487
rtoes -9.56968
lfemur -48.8474 5.55252 -13.4004
ltibia 80.2561
lfoot -11.7836 -4.04158
ltoes -12.6628
15
root 0.264615 16.4058 -34.6789 20.9322 0.316761 -1.57783
lowerback 8.5528 0.724482 2.9649
upperback 1.0689 1.3837 3.68123
thorax -3.71102 0.665405 1.99274
lowerneck -13.3699 -4.62251 -10.9013
upperneck 6.87406 -4.92691 6.62595
head 4.66616 -2.32606 3.42088
rclavicle 1.03368e-014 2.94201e-014
rhumerus -29.32 3.5089 -85.2135
rradius 53.7044
rwrist -2.52302
rhand -16.9046 10.3302
rfingers 7.12502
rthumb 9.32735 -19.4434
lclavicle 1.03368e-014 2.94201e-014
lhumerus -37.4893 6.70994 86.2967
lradius 42.527
lwrist 7.60886
lhand -14.3664 20.9761
lfingers 7.12502
lthumb 11.7758 50.6251
rfemur -5.18711 3.02443 27.5036
rtibia 21.6796
rfoot -27.4385 -8.44565
rtoes -9.17584
lfemur -50.3008 6.21076 -13.8296
ltibia 81.2959
lfoot -12.7184 -3.87459
ltoes -12.9961
